PathFileType	4	(X/Y/Z)	pose_F01_0-95.trc
DataRate	CameraRate	NumFrames	NumMarkers	Units	OrigDataRate	OrigDataStartFrame	OrigNumFrames
30	30	15	21	m	30	57	95
Frame#	Time	CHip			RHip			RKnee			RAnkle			RBigToe			RSmallToe			RHeel			LHip			LKnee			LAnkle			LBigToe			LSmallToe			LHeel			Neck			Nose			RShoulder			RElbow			RWrist			LShoulder			LElbow			LWrist			
		X1	Y1	Z1	X2	Y2	Z2	X3	Y3	Z3	X4	Y4	Z4	X5	Y5	Z5	X6	Y6	Z6	X7	Y7	Z7	X8	Y8	Z8	X9	Y9	Z9	X10	Y10	Z10	X11	Y11	Z11	X12	Y12	Z12	X13	Y13	Z13	X14	Y14	Z14	X15	Y15	Z15	X16	Y16	Z16	X17	Y17	Z17	X18	Y18	Z18	X19	Y19	Z19	X20	Y20	Z20	X21	Y21	Z21	
57	1.9	-0.2955029881598001	1.8872597981415702	-0.5946111049960459	-0.3074101517571913	1.8854963533760098	-0.5353602800337998																-0.2792740374424543	1.8896535206065188	-0.6613853340669623	-0.24640785409746274	1.762348154795582	-0.7012288041916077													-0.2994238734321278	2.0480678074575707	-0.6243364059092108	-0.2901813678755876	2.112831814294515	-0.6113567071531419	-0.31925882716638504	2.0465859207904793	-0.5414460902416504	-0.3016778157788529	1.9990041140058337	-0.4938223962188291	-0.29623268770090044	2.0634680748603578	-0.5506206465683414	-0.2809205931643178	2.0513484164797307	-0.7107615887737811	-0.2682484004914625	1.971085443896646	-0.7276150206632763	-0.2550488783875945	1.8991650928425303	-0.727156759495599
58	1.9333333333333333	-0.2952469537046789	1.890743602917952	-0.5949843320794818	-0.30920637879413576	1.8867591826377694	-0.5333969996588996																-0.27806880782350163	1.893540143760555	-0.658767041202759	-0.24640785409746274	1.762348154795582	-0.7012288041916077													-0.30125793201891593	2.049643582370463	-0.621923488996951	-0.2913113417161471	2.112835210915776	-0.60694995081225	-0.3202974848248947	2.04650689004495	-0.5362086838896701	-0.30460641280970385	2.002508220650525	-0.48712188240995835	-0.29507413949813377	2.0655280902982076	-0.5472354662248017	-0.27985236972090205	2.051579599258379	-0.7072503283871868	-0.2694672605066531	1.972600887041735	-0.7223212866507835	-0.2581357923911843	1.9021472634005017	-0.7193593677739556
59	1.9666666666666666	-0.29642810667894887	1.8871372616565762	-0.58944628919998	-0.3111370645999313	1.884726971877836	-0.53092835073437																-0.28012986990834415	1.8909590675504016	-0.6563012181318768	-0.24640785409746274	1.762348154795582	-0.7012288041916077													-0.29943355153134416	2.0493801534344134	-0.6158945866695889	-0.2923938565346485	2.1136143553378544	-0.6017006926965653	-0.3211227007475071	2.0474058004659916	-0.5310364021336438	-0.30939359434892694	2.0022067072706418	-0.4775412241740218	-0.29750250984343174	2.065030095322262	-0.5462703738215019	-0.27901403363512484	2.052852522571286	-0.7044393481359771	-0.2694557410192569	1.9723233574176398	-0.7222301700989067	-0.2608247847693067	1.9028171275453047	-0.7190066911732916
60	2.0	-0.29657525526362666	1.8884809253386563	-0.5895703091326135	-0.3114485124381423	1.8846017246134903	-0.530998951222205																-0.28047086341916455	1.8909693731025634	-0.6562222730049285	-0.24640785409746274	1.762348154795582	-0.7012288041916077													-0.3004936195340834	2.047757617058133	-0.6101679694611302	-0.2915411771802928	2.113518279577375	-0.5986725400801101	-0.3200763381766505	2.0447130523901427	-0.5269053578073204	-0.31209611144730587	2.0053008533140004	-0.46250010304707073	-0.3043553330008584	2.069743751257231	-0.5355224727855029	-0.279294109240156	2.0526655299405605	-0.6963815495483219	-0.27293107971423325	1.9752234118099201	-0.7154888791824108	-0.2635137771474292	1.903486991690108	-0.7186540145726277
61	2.033333333333333	-0.2988010008061874	1.8903905895242954	-0.5875313704106441	-0.3134544509687215	1.8873022602670648	-0.5291486662770759																-0.2861783992747757	1.8937807989889213	-0.647012160276536	-0.24640785409746274	1.762348154795582	-0.7012288041916077													-0.30455805655773865	2.0501793410668214	-0.6063543388181158	-0.29341197700808264	2.1146285449249675	-0.5963586615874129	-0.32411935168056194	2.046042137595063	-0.5232437597708176	-0.3139132774085232	2.007027005415762	-0.45236715913453124	-0.30730352410497047	2.0662815594767987	-0.5186713990062998	-0.27947527591739063	2.053448124750378	-0.6967891191554195	-0.2762238257749542	1.976413407909734	-0.7164684553129008	-0.26475267846236683	1.9059680370446384	-0.7216669858051412
62	2.066666666666667	-0.29883939392331466	1.8897899321322067	-0.5875545289819004	-0.31560398585269345	1.8854823793558972	-0.5269206244928939																-0.2868646311394738	1.8934292874330216	-0.6500112830703129	-0.24640785409746274	1.762348154795582	-0.7012288041916077													-0.303484312004827	2.051237039533245	-0.6032086247927769	-0.2925336055925854	2.1145217967986634	-0.5933469590866608	-0.3219288357613444	2.048135681846971	-0.5250265933424355	-0.31764793773176264	2.010194058041163	-0.4404200791325958	-0.3039611409487933	2.067428606511056	-0.5086086925730726	-0.2805906031887115	2.054468376616172	-0.6914761001014641	-0.2762988686162614	1.975088869164508	-0.7164306769840266	-0.2669033614903294	1.9029304955299675	-0.7195750826515651
63	2.1	-0.29862050224593467	1.8892816072037588	-0.5874452727985211	-0.31524518700639675	1.8862332912440116	-0.5268740876310807																-0.2867511202402278	1.8945373979615219	-0.6500947934969628	-0.24640785409746274	1.762348154795582	-0.7012288041916077													-0.303527082347586	2.052305509479069	-0.6035085286016664	-0.29460983932168083	2.1155281645140405	-0.5917077181297995	-0.3238907879656104	2.04929920720681	-0.5234948220263685	-0.32109544408297186	2.0113987654275958	-0.42780590008565184	-0.3089616137013939	2.0711109293938064	-0.5091546722424524	-0.2817366622233518	2.056428290157441	-0.6866432132490258	-0.27529746073735434	1.9776197940678633	-0.7137672384122588	-0.26349562373879376	1.9050225195885757	-0.718463000483593
64	2.1333333333333333	-0.29880426282792544	1.8922390013674895	-0.5878722114811897	-0.3154749085801255	1.8863784463758178	-0.5271525630187599																-0.28700257084975833	1.8947328140067365	-0.6500734630176398	-0.24640785409746274	1.762348154795582	-0.7012288041916077													-0.3015181797204151	2.053455474373428	-0.6061425390852774	-0.29665970099075206	2.114577631892353	-0.589762960104891	-0.32009526451042547	2.0496333553160113	-0.5283051493416127	-0.3258879726012154	2.01620407258549	-0.42752198520386625	-0.31069451105759854	2.0727725012886205	-0.49854728922533603	-0.2817170109542337	2.0564237190691292	-0.6866898486025483	-0.27491755322179	1.9761371737443238	-0.7217175146132343	-0.26352240980567104	1.9017024467021386	-0.71879102815562
65	2.1666666666666665	-0.30003561426592296	1.8924365699478864	-0.5910200336890797	-0.3156065398653658	1.8879002707691237	-0.527380129936605																-0.2871196514466623	1.8958191846268342	-0.6504216112884571	-0.2803707529041988	1.7559821124883421	-0.6873418634707114													-0.30449971541828563	2.0536565522469616	-0.6070219002320687	-0.29654524421115785	2.1156478852562817	-0.5897172313055665	-0.32313018968231993	2.0495787036047255	-0.5291739345906659	-0.3266336102761681	2.0174132776874716	-0.422340046043109	-0.31271181508964124	2.0766513739960493	-0.49741932106788367	-0.2825983190831739	2.056736159104682	-0.6895985620719158	-0.27399673082011883	1.977825021497554	-0.7190419044512528	-0.2625019502630429	1.9045178268697074	-0.7243223957985562
66	2.2	-0.2985088768901572	1.8939262279504303	-0.5964424177276056	-0.31229531522277043	1.8876791558496062	-0.5347231307512545																-0.2855209655172841	1.8979592773746066	-0.6560944454725581	-0.2803707529041988	1.7559821124883421	-0.6873418634707114													-0.3034268346481847	2.051573922434412	-0.6119100093169894	-0.2934860457607575	2.1145504273131763	-0.5963917119610564	-0.3212303226327074	2.047267524124007	-0.530978037022843	-0.3277824334323616	2.0161850405653703	-0.4254366150289727	-0.31652721190095756	2.0751818243756164	-0.4926255119712589	-0.2814565650159693	2.0558660891132	-0.6949575743248991	-0.27483064722891093	1.9786186857170718	-0.7221177189846433	-1.21469155459098	1.803181725813851	0.20381353514648928
67	2.2333333333333334	-0.2973856675902246	1.891178520882479	-0.6016506517111284	-0.3082521356160468	1.8880378936742763	-0.5391789620375379																-0.28000563398743883	1.894769611278453	-0.6653526473665308	-0.2803707529041988	1.7559821124883421	-0.6873418634707114													-0.30111865567038254	2.0508412454899925	-0.6218758217886157	-0.29035583310302643	2.1126446586534633	-0.6033266090189573	-0.31910713213839664	2.0466963787413537	-0.5409613470567483	-0.3243805909081566	2.009322992639	-0.4368807581134384	-0.3169451151901383	2.0669588094741376	-0.4922135940792225	-0.27893622619399955	2.0550908869371405	-0.7048409136204347	-0.2713406218135619	1.978063896195967	-0.7295660907151222	-1.2063096715946104	1.8009220523544063	0.19189468072654417
68	2.2666666666666666	-0.29605907734258147	1.8915333619652237	-0.6154475648947314	-0.3083333486769857	1.889234272778715	-0.5477107945000407																-0.2797794335881706	1.895114571632615	-0.6738510770347821	-0.2803707529041988	1.7559821124883421	-0.6873418634707114													-0.3000642482161306	2.04912058472184	-0.6268043168875584	-0.29022212813594117	2.1118593648389727	-0.6115984141033943	-0.31812641607461783	2.044151689157237	-0.5453303020455017	-0.31850288161530216	2.0015079388071215	-0.46406262840930723	-0.31506190325490846	2.0629307721738743	-0.5010793223066173	-0.27874512185646766	2.0539544502064158	-0.7131056356030178	-0.2708548656612399	1.9764473765953747	-0.7377341029873271	-1.2012934105052138	1.8035438858702204	0.1799335167387841
69	2.3	-0.28863185410544506	1.8927590795335512	-0.6275887814342348	-0.30507542405079136	1.8914370271273273	-0.5642117504181619																-0.2789156561931666	1.8967034721572074	-0.6908011787069677	-0.2803707529041988	1.7559821124883421	-0.6873418634707114													-0.2978243066504745	2.0483575105254497	-0.6372730202237554	-0.2891175486155583	2.1119500150246093	-0.6168373571351067	-0.3152816689932755	2.044030173154489	-0.5533001707465787	-0.3160590455593001	1.9913050351296346	-0.47849653021066735	-0.30949370951735383	2.0563630464422764	-0.5144079264156969	-0.27611804742162654	2.0538640327516133	-0.7235841298002034	-0.26831786460556184	1.9729762881387845	-0.7476823560211756	-1.1805684442523978	1.7952475403099843	0.14707692849229645
70	2.3333333333333335	-0.2883044668266069	1.8920776222928843	-0.6362269100938943	-0.30080096911431614	1.889021383313056	-0.5768951972210757																-0.2741548931096982	1.8949267609454774	-0.7037955722450762	-0.2803707529041988	1.7559821124883421	-0.6873418634707114													-0.29248493224840816	2.04898046418869	-0.6468664715123961	-0.28387949786954253	2.113394613429712	-0.6268081831379001	-0.3101128745898701	2.0441130321946175	-0.5628292846642632	-0.3074884508783836	1.9873858749887439	-0.5001167921344795	-0.3066971049460766	2.0492325736837347	-0.5204928464658889	-0.27347450303596343	2.0546326082334954	-0.7341243497556957	-0.2684699688659317	1.974432557984858	-0.7590345051611761	-1.1751869856069224	1.7971574622426056	0.13515892695897425
71	2.3666666666666667	-0.28778691355802255	1.892970793097412	-0.6530927134979481	-0.2986117722005696	1.8903010305683925	-0.5875670572987608																-0.2694499081743706	1.8970684019927497	-0.7166461678706232	-0.2803707529041988	1.7559821124883421	-0.6873418634707114													-0.29014245224803364	2.0485773471356428	-0.6574453332119178	-0.28151248104463894	2.1138918039015673	-0.6370257038395021	-0.3061147264896151	2.0438931160867537	-0.5753316556270085	-0.30981115665039544	1.9784985169137466	-0.5133173627610185	-0.3067557036807353	2.044979757231327	-0.5197841578500879	-0.2695349422389149	2.0554906433802995	-0.7494710704667967	-0.2657068549018289	1.9735553292366814	-0.769273293180881	-1.1508649995453504	1.7945156186056683	0.09098554992579366
